<svg xmlns="http://www.w3.org/2000/svg" viewBox="0 0 52 71" preserveAspectRatio="xMidYMid meet" shape-rendering="crispEdges">
  <path d="M 0 0 H 52 V 1 H 0 Z M 0 1 H 1 V 2 H 0 Z M 51 1 H 52 V 2 H 51 Z M 0 2 H 1 V 3 H 0 Z M 51 2 H 52 V 3 H 51 Z M 0 3 H 1 V 4 H 0 Z M 51 3 H 52 V 4 H 51 Z M 0 4 H 1 V 5 H 0 Z M 51 4 H 52 V 5 H 51 Z M 0 5 H 1 V 6 H 0 Z M 6 5 H 12 V 6 H 6 Z M 15 5 H 21 V 6 H 15 Z M 23 5 H 29 V 6 H 23 Z M 31 5 H 36 V 6 H 31 Z M 40 5 H 44 V 6 H 40 Z M 51 5 H 52 V 6 H 51 Z M 0 6 H 1 V 7 H 0 Z M 6 6 H 12 V 7 H 6 Z M 15 6 H 21 V 7 H 15 Z M 23 6 H 29 V 7 H 23 Z M 31 6 H 37 V 7 H 31 Z M 39 6 H 45 V 7 H 39 Z M 51 6 H 52 V 7 H 51 Z M 0 7 H 1 V 8 H 0 Z M 6 7 H 8 V 8 H 6 Z M 18 7 H 20 V 8 H 18 Z M 23 7 H 25 V 8 H 23 Z M 31 7 H 33 V 8 H 31 Z M 35 7 H 37 V 8 H 35 Z M 39 7 H 41 V 8 H 39 Z M 43 7 H 45 V 8 H 43 Z M 51 7 H 52 V 8 H 51 Z M 0 8 H 1 V 9 H 0 Z M 6 8 H 8 V 9 H 6 Z M 18 8 H 20 V 9 H 18 Z M 23 8 H 25 V 9 H 23 Z M 31 8 H 33 V 9 H 31 Z M 35 8 H 37 V 9 H 35 Z M 39 8 H 41 V 9 H 39 Z M 43 8 H 45 V 9 H 43 Z M 51 8 H 52 V 9 H 51 Z M 0 9 H 1 V 10 H 0 Z M 6 9 H 11 V 10 H 6 Z M 13 9 H 15 V 10 H 13 Z M 17 9 H 19 V 10 H 17 Z M 23 9 H 28 V 10 H 23 Z M 31 9 H 37 V 10 H 31 Z M 39 9 H 41 V 10 H 39 Z M 43 9 H 45 V 10 H 43 Z M 51 9 H 52 V 10 H 51 Z M 0 10 H 1 V 11 H 0 Z M 6 10 H 11 V 11 H 6 Z M 13 10 H 15 V 11 H 13 Z M 17 10 H 19 V 11 H 17 Z M 23 10 H 28 V 11 H 23 Z M 31 10 H 36 V 11 H 31 Z M 39 10 H 41 V 11 H 39 Z M 43 10 H 45 V 11 H 43 Z M 51 10 H 52 V 11 H 51 Z M 0 11 H 1 V 12 H 0 Z M 6 11 H 8 V 12 H 6 Z M 16 11 H 18 V 12 H 16 Z M 23 11 H 25 V 12 H 23 Z M 31 11 H 33 V 12 H 31 Z M 35 11 H 37 V 12 H 35 Z M 39 11 H 41 V 12 H 39 Z M 43 11 H 45 V 12 H 43 Z M 51 11 H 52 V 12 H 51 Z M 0 12 H 1 V 13 H 0 Z M 6 12 H 8 V 13 H 6 Z M 16 12 H 18 V 13 H 16 Z M 23 12 H 25 V 13 H 23 Z M 31 12 H 33 V 13 H 31 Z M 35 12 H 37 V 13 H 35 Z M 39 12 H 41 V 13 H 39 Z M 43 12 H 45 V 13 H 43 Z M 51 12 H 52 V 13 H 51 Z M 0 13 H 1 V 14 H 0 Z M 6 13 H 8 V 14 H 6 Z M 15 13 H 21 V 14 H 15 Z M 23 13 H 29 V 14 H 23 Z M 31 13 H 33 V 14 H 31 Z M 35 13 H 37 V 14 H 35 Z M 39 13 H 45 V 14 H 39 Z M 51 13 H 52 V 14 H 51 Z M 0 14 H 1 V 15 H 0 Z M 6 14 H 8 V 15 H 6 Z M 15 14 H 21 V 15 H 15 Z M 23 14 H 29 V 15 H 23 Z M 31 14 H 33 V 15 H 31 Z M 35 14 H 37 V 15 H 35 Z M 40 14 H 44 V 15 H 40 Z M 51 14 H 52 V 15 H 51 Z M 0 15 H 1 V 16 H 0 Z M 51 15 H 52 V 16 H 51 Z M 0 16 H 1 V 17 H 0 Z M 51 16 H 52 V 17 H 51 Z M 0 17 H 1 V 18 H 0 Z M 51 17 H 52 V 18 H 51 Z M 0 18 H 1 V 19 H 0 Z M 51 18 H 52 V 19 H 51 Z M 0 19 H 1 V 20 H 0 Z M 51 19 H 52 V 20 H 51 Z M 0 20 H 1 V 21 H 0 Z M 51 20 H 52 V 21 H 51 Z M 0 21 H 1 V 22 H 0 Z M 51 21 H 52 V 22 H 51 Z M 0 22 H 1 V 23 H 0 Z M 7 22 H 10 V 23 H 7 Z M 11 22 H 12 V 23 H 11 Z M 19 22 H 20 V 23 H 19 Z M 21 22 H 22 V 23 H 21 Z M 31 22 H 33 V 23 H 31 Z M 39 22 H 41 V 23 H 39 Z M 43 22 H 44 V 23 H 43 Z M 51 22 H 52 V 23 H 51 Z M 0 23 H 1 V 24 H 0 Z M 6 23 H 11 V 24 H 6 Z M 18 23 H 21 V 24 H 18 Z M 22 23 H 23 V 24 H 22 Z M 30 23 H 34 V 24 H 30 Z M 39 23 H 41 V 24 H 39 Z M 42 23 H 43 V 24 H 42 Z M 51 23 H 52 V 24 H 51 Z M 0 24 H 1 V 25 H 0 Z M 8 24 H 10 V 25 H 8 Z M 18 24 H 20 V 25 H 18 Z M 21 24 H 23 V 25 H 21 Z M 29 24 H 31 V 25 H 29 Z M 32 24 H 34 V 25 H 32 Z M 39 24 H 41 V 25 H 39 Z M 42 24 H 44 V 25 H 42 Z M 51 24 H 52 V 25 H 51 Z M 0 25 H 1 V 26 H 0 Z M 8 25 H 10 V 26 H 8 Z M 18 25 H 20 V 26 H 18 Z M 21 25 H 23 V 26 H 21 Z M 29 25 H 31 V 26 H 29 Z M 32 25 H 34 V 26 H 32 Z M 39 25 H 41 V 26 H 39 Z M 42 25 H 44 V 26 H 42 Z M 51 25 H 52 V 26 H 51 Z M 0 26 H 1 V 27 H 0 Z M 8 26 H 10 V 27 H 8 Z M 18 26 H 20 V 27 H 18 Z M 21 26 H 22 V 27 H 21 Z M 29 26 H 30 V 27 H 29 Z M 39 26 H 41 V 27 H 39 Z M 42 26 H 44 V 27 H 42 Z M 51 26 H 52 V 27 H 51 Z M 0 27 H 1 V 28 H 0 Z M 8 27 H 10 V 28 H 8 Z M 18 27 H 20 V 28 H 18 Z M 22 27 H 23 V 28 H 22 Z M 30 27 H 31 V 28 H 30 Z M 39 27 H 41 V 28 H 39 Z M 42 27 H 44 V 28 H 42 Z M 51 27 H 52 V 28 H 51 Z M 0 28 H 1 V 29 H 0 Z M 8 28 H 10 V 29 H 8 Z M 18 28 H 23 V 29 H 18 Z M 29 28 H 31 V 29 H 29 Z M 39 28 H 43 V 29 H 39 Z M 51 28 H 52 V 29 H 51 Z M 0 29 H 1 V 30 H 0 Z M 8 29 H 10 V 30 H 8 Z M 18 29 H 23 V 30 H 18 Z M 29 29 H 31 V 30 H 29 Z M 39 29 H 43 V 30 H 39 Z M 51 29 H 52 V 30 H 51 Z M 0 30 H 1 V 31 H 0 Z M 8 30 H 10 V 31 H 8 Z M 18 30 H 20 V 31 H 18 Z M 21 30 H 22 V 31 H 21 Z M 29 30 H 30 V 31 H 29 Z M 39 30 H 41 V 31 H 39 Z M 43 30 H 44 V 31 H 43 Z M 51 30 H 52 V 31 H 51 Z M 0 31 H 1 V 32 H 0 Z M 8 31 H 10 V 32 H 8 Z M 18 31 H 20 V 32 H 18 Z M 22 31 H 23 V 32 H 22 Z M 30 31 H 31 V 32 H 30 Z M 39 31 H 41 V 32 H 39 Z M 42 31 H 43 V 32 H 42 Z M 51 31 H 52 V 32 H 51 Z M 0 32 H 1 V 33 H 0 Z M 8 32 H 10 V 33 H 8 Z M 18 32 H 20 V 33 H 18 Z M 21 32 H 23 V 33 H 21 Z M 29 32 H 31 V 33 H 29 Z M 32 32 H 34 V 33 H 32 Z M 39 32 H 41 V 33 H 39 Z M 42 32 H 44 V 33 H 42 Z M 51 32 H 52 V 33 H 51 Z M 0 33 H 1 V 34 H 0 Z M 8 33 H 10 V 34 H 8 Z M 18 33 H 20 V 34 H 18 Z M 21 33 H 23 V 34 H 21 Z M 29 33 H 31 V 34 H 29 Z M 32 33 H 34 V 34 H 32 Z M 39 33 H 41 V 34 H 39 Z M 42 33 H 44 V 34 H 42 Z M 51 33 H 52 V 34 H 51 Z M 0 34 H 1 V 35 H 0 Z M 6 34 H 10 V 35 H 6 Z M 18 34 H 20 V 35 H 18 Z M 21 34 H 22 V 35 H 21 Z M 29 34 H 30 V 35 H 29 Z M 31 34 H 34 V 35 H 31 Z M 39 34 H 41 V 35 H 39 Z M 43 34 H 44 V 35 H 43 Z M 51 34 H 52 V 35 H 51 Z M 0 35 H 1 V 36 H 0 Z M 6 35 H 9 V 36 H 6 Z M 18 35 H 20 V 36 H 18 Z M 22 35 H 23 V 36 H 22 Z M 30 35 H 31 V 36 H 30 Z M 32 35 H 33 V 36 H 32 Z M 40 35 H 41 V 36 H 40 Z M 42 35 H 43 V 36 H 42 Z M 51 35 H 52 V 36 H 51 Z M 0 36 H 1 V 37 H 0 Z M 51 36 H 52 V 37 H 51 Z M 0 37 H 1 V 38 H 0 Z M 51 37 H 52 V 38 H 51 Z M 0 38 H 1 V 39 H 0 Z M 51 38 H 52 V 39 H 51 Z M 0 39 H 1 V 40 H 0 Z M 2 39 H 50 V 40 H 2 Z M 51 39 H 52 V 40 H 51 Z M 0 40 H 1 V 41 H 0 Z M 51 40 H 52 V 41 H 51 Z M 0 41 H 1 V 42 H 0 Z M 51 41 H 52 V 42 H 51 Z M 0 42 H 1 V 43 H 0 Z M 51 42 H 52 V 43 H 51 Z M 0 43 H 1 V 44 H 0 Z M 51 43 H 52 V 44 H 51 Z M 0 44 H 1 V 45 H 0 Z M 51 44 H 52 V 45 H 51 Z M 0 45 H 1 V 46 H 0 Z M 51 45 H 52 V 46 H 51 Z M 0 46 H 1 V 47 H 0 Z M 51 46 H 52 V 47 H 51 Z M 0 47 H 1 V 48 H 0 Z M 51 47 H 52 V 48 H 51 Z M 0 48 H 1 V 49 H 0 Z M 51 48 H 52 V 49 H 51 Z M 0 49 H 1 V 50 H 0 Z M 51 49 H 52 V 50 H 51 Z M 0 50 H 1 V 51 H 0 Z M 51 50 H 52 V 51 H 51 Z M 0 51 H 1 V 52 H 0 Z M 51 51 H 52 V 52 H 51 Z M 0 52 H 1 V 53 H 0 Z M 51 52 H 52 V 53 H 51 Z M 0 53 H 1 V 54 H 0 Z M 51 53 H 52 V 54 H 51 Z M 0 54 H 1 V 55 H 0 Z M 51 54 H 52 V 55 H 51 Z M 0 55 H 1 V 56 H 0 Z M 51 55 H 52 V 56 H 51 Z M 0 56 H 1 V 57 H 0 Z M 51 56 H 52 V 57 H 51 Z M 0 57 H 1 V 58 H 0 Z M 51 57 H 52 V 58 H 51 Z M 0 58 H 2 V 59 H 0 Z M 50 58 H 52 V 59 H 50 Z M 2 59 H 4 V 60 H 2 Z M 48 59 H 50 V 60 H 48 Z M 4 60 H 6 V 61 H 4 Z M 46 60 H 48 V 61 H 46 Z M 6 61 H 8 V 62 H 6 Z M 44 61 H 46 V 62 H 44 Z M 8 62 H 10 V 63 H 8 Z M 42 62 H 44 V 63 H 42 Z M 10 63 H 12 V 64 H 10 Z M 40 63 H 42 V 64 H 40 Z M 12 64 H 14 V 65 H 12 Z M 38 64 H 40 V 65 H 38 Z M 14 65 H 16 V 66 H 14 Z M 36 65 H 38 V 66 H 36 Z M 16 66 H 18 V 67 H 16 Z M 34 66 H 36 V 67 H 34 Z M 18 67 H 20 V 68 H 18 Z M 32 67 H 34 V 68 H 32 Z M 20 68 H 22 V 69 H 20 Z M 30 68 H 32 V 69 H 30 Z M 22 69 H 24 V 70 H 22 Z M 28 69 H 30 V 70 H 28 Z M 24 70 H 28 V 71 H 24 Z" fill="#f8f8f8" fill-rule="evenodd"/>
  <path d="M 1 1 H 2 V 2 H 1 Z M 1 4 H 2 V 5 H 1 Z M 1 5 H 2 V 6 H 1 Z M 1 8 H 2 V 9 H 1 Z M 46 8 H 47 V 9 H 46 Z M 1 9 H 2 V 10 H 1 Z M 46 9 H 47 V 10 H 46 Z M 1 12 H 2 V 13 H 1 Z M 9 12 H 10 V 13 H 9 Z M 46 12 H 47 V 13 H 46 Z M 1 13 H 2 V 14 H 1 Z M 9 13 H 10 V 14 H 9 Z M 1 16 H 2 V 17 H 1 Z M 1 17 H 2 V 18 H 1 Z M 1 20 H 2 V 21 H 1 Z M 1 21 H 2 V 22 H 1 Z M 45 22 H 46 V 23 H 45 Z M 24 23 H 25 V 24 H 24 Z M 45 23 H 46 V 24 H 45 Z M 1 24 H 2 V 25 H 1 Z M 24 24 H 25 V 25 H 24 Z M 35 24 H 36 V 25 H 35 Z M 45 24 H 46 V 25 H 45 Z M 1 25 H 2 V 26 H 1 Z M 11 25 H 12 V 26 H 11 Z M 24 25 H 25 V 26 H 24 Z M 45 25 H 46 V 26 H 45 Z M 11 26 H 12 V 27 H 11 Z M 24 26 H 25 V 27 H 24 Z M 11 27 H 12 V 28 H 11 Z M 1 28 H 2 V 29 H 1 Z M 11 28 H 12 V 29 H 11 Z M 24 28 H 25 V 29 H 24 Z M 32 28 H 33 V 29 H 32 Z M 1 29 H 2 V 30 H 1 Z M 11 29 H 12 V 30 H 11 Z M 24 29 H 25 V 30 H 24 Z M 32 29 H 33 V 30 H 32 Z M 11 30 H 12 V 31 H 11 Z M 24 30 H 25 V 31 H 24 Z M 32 30 H 33 V 31 H 32 Z M 45 30 H 46 V 31 H 45 Z M 11 31 H 12 V 32 H 11 Z M 45 31 H 46 V 32 H 45 Z M 1 32 H 2 V 33 H 1 Z M 11 32 H 12 V 33 H 11 Z M 24 32 H 25 V 33 H 24 Z M 45 32 H 46 V 33 H 45 Z M 1 33 H 2 V 34 H 1 Z M 11 33 H 12 V 34 H 11 Z M 24 33 H 25 V 34 H 24 Z M 35 33 H 36 V 34 H 35 Z M 45 33 H 46 V 34 H 45 Z M 11 34 H 12 V 35 H 11 Z M 24 34 H 25 V 35 H 24 Z M 35 34 H 36 V 35 H 35 Z M 24 35 H 25 V 36 H 24 Z M 1 36 H 2 V 37 H 1 Z M 1 37 H 2 V 38 H 1 Z M 1 40 H 2 V 41 H 1 Z M 1 41 H 2 V 42 H 1 Z M 1 44 H 2 V 45 H 1 Z M 1 45 H 2 V 46 H 1 Z M 6 46 H 7 V 47 H 6 Z M 1 48 H 2 V 49 H 1 Z M 1 49 H 2 V 50 H 1 Z M 45 51 H 46 V 52 H 45 Z M 1 52 H 2 V 53 H 1 Z M 1 53 H 2 V 54 H 1 Z M 1 56 H 2 V 57 H 1 Z M 1 57 H 2 V 58 H 1 Z M 4 59 H 5 V 60 H 4 Z M 6 60 H 7 V 61 H 6 Z M 8 61 H 9 V 62 H 8 Z M 12 63 H 13 V 64 H 12 Z M 14 64 H 15 V 65 H 14 Z M 16 65 H 17 V 66 H 16 Z M 20 67 H 21 V 68 H 20 Z M 22 68 H 23 V 69 H 22 Z M 24 69 H 25 V 70 H 24 Z" fill="#105010" fill-rule="evenodd"/>
  <path d="M 2 1 H 51 V 2 H 2 Z M 3 2 H 5 V 3 H 3 Z M 7 2 H 9 V 3 H 7 Z M 11 2 H 13 V 3 H 11 Z M 15 2 H 17 V 3 H 15 Z M 19 2 H 21 V 3 H 19 Z M 23 2 H 25 V 3 H 23 Z M 27 2 H 29 V 3 H 27 Z M 31 2 H 33 V 3 H 31 Z M 35 2 H 37 V 3 H 35 Z M 39 2 H 41 V 3 H 39 Z M 43 2 H 45 V 3 H 43 Z M 47 2 H 49 V 3 H 47 Z M 3 3 H 5 V 4 H 3 Z M 7 3 H 9 V 4 H 7 Z M 11 3 H 13 V 4 H 11 Z M 15 3 H 17 V 4 H 15 Z M 19 3 H 21 V 4 H 19 Z M 23 3 H 25 V 4 H 23 Z M 27 3 H 29 V 4 H 27 Z M 31 3 H 33 V 4 H 31 Z M 35 3 H 37 V 4 H 35 Z M 39 3 H 41 V 4 H 39 Z M 43 3 H 45 V 4 H 43 Z M 47 3 H 49 V 4 H 47 Z M 2 4 H 5 V 5 H 2 Z M 38 4 H 39 V 5 H 38 Z M 46 4 H 51 V 5 H 46 Z M 2 5 H 5 V 6 H 2 Z M 47 5 H 51 V 6 H 47 Z M 3 6 H 5 V 7 H 3 Z M 47 6 H 49 V 7 H 47 Z M 3 7 H 5 V 8 H 3 Z M 47 7 H 49 V 8 H 47 Z M 2 8 H 5 V 9 H 2 Z M 47 8 H 51 V 9 H 47 Z M 2 9 H 5 V 10 H 2 Z M 47 9 H 51 V 10 H 47 Z M 3 10 H 5 V 11 H 3 Z M 47 10 H 49 V 11 H 47 Z M 3 11 H 5 V 12 H 3 Z M 47 11 H 49 V 12 H 47 Z M 2 12 H 5 V 13 H 2 Z M 10 12 H 14 V 13 H 10 Z M 47 12 H 51 V 13 H 47 Z M 2 13 H 5 V 14 H 2 Z M 10 13 H 14 V 14 H 10 Z M 47 13 H 51 V 14 H 47 Z M 3 14 H 5 V 15 H 3 Z M 11 14 H 13 V 15 H 11 Z M 47 14 H 49 V 15 H 47 Z M 3 15 H 5 V 16 H 3 Z M 11 15 H 13 V 16 H 11 Z M 47 15 H 49 V 16 H 47 Z M 2 16 H 51 V 17 H 2 Z M 2 17 H 51 V 18 H 2 Z M 3 18 H 5 V 19 H 3 Z M 7 18 H 9 V 19 H 7 Z M 11 18 H 13 V 19 H 11 Z M 15 18 H 17 V 19 H 15 Z M 19 18 H 21 V 19 H 19 Z M 23 18 H 25 V 19 H 23 Z M 27 18 H 29 V 19 H 27 Z M 31 18 H 33 V 19 H 31 Z M 35 18 H 37 V 19 H 35 Z M 39 18 H 41 V 19 H 39 Z M 43 18 H 45 V 19 H 43 Z M 47 18 H 49 V 19 H 47 Z M 3 19 H 5 V 20 H 3 Z M 7 19 H 9 V 20 H 7 Z M 11 19 H 13 V 20 H 11 Z M 15 19 H 17 V 20 H 15 Z M 19 19 H 21 V 20 H 19 Z M 23 19 H 25 V 20 H 23 Z M 27 19 H 29 V 20 H 27 Z M 31 19 H 33 V 20 H 31 Z M 35 19 H 37 V 20 H 35 Z M 39 19 H 41 V 20 H 39 Z M 43 19 H 45 V 20 H 43 Z M 47 19 H 49 V 20 H 47 Z M 2 20 H 51 V 21 H 2 Z M 2 21 H 5 V 22 H 2 Z M 14 21 H 18 V 22 H 14 Z M 24 21 H 29 V 22 H 24 Z M 35 21 H 38 V 22 H 35 Z M 46 21 H 51 V 22 H 46 Z M 3 22 H 5 V 23 H 3 Z M 14 22 H 15 V 23 H 14 Z M 16 22 H 17 V 23 H 16 Z M 26 22 H 27 V 23 H 26 Z M 36 22 H 37 V 23 H 36 Z M 46 22 H 49 V 23 H 46 Z M 3 23 H 5 V 24 H 3 Z M 15 23 H 16 V 24 H 15 Z M 25 23 H 26 V 24 H 25 Z M 27 23 H 28 V 24 H 27 Z M 36 23 H 37 V 24 H 36 Z M 47 23 H 49 V 24 H 47 Z M 2 24 H 5 V 25 H 2 Z M 14 24 H 17 V 25 H 14 Z M 25 24 H 28 V 25 H 25 Z M 36 24 H 38 V 25 H 36 Z M 46 24 H 51 V 25 H 46 Z M 2 25 H 7 V 26 H 2 Z M 12 25 H 17 V 26 H 12 Z M 25 25 H 28 V 26 H 25 Z M 36 25 H 38 V 26 H 36 Z M 46 25 H 51 V 26 H 46 Z M 3 26 H 5 V 27 H 3 Z M 6 26 H 7 V 27 H 6 Z M 12 26 H 13 V 27 H 12 Z M 14 26 H 15 V 27 H 14 Z M 16 26 H 17 V 27 H 16 Z M 26 26 H 28 V 27 H 26 Z M 36 26 H 37 V 27 H 36 Z M 46 26 H 49 V 27 H 46 Z M 3 27 H 6 V 28 H 3 Z M 12 27 H 13 V 28 H 12 Z M 15 27 H 16 V 28 H 15 Z M 25 27 H 26 V 28 H 25 Z M 27 27 H 28 V 28 H 27 Z M 33 27 H 34 V 28 H 33 Z M 35 27 H 37 V 28 H 35 Z M 47 27 H 49 V 28 H 47 Z M 2 28 H 7 V 29 H 2 Z M 12 28 H 17 V 29 H 12 Z M 25 28 H 28 V 29 H 25 Z M 33 28 H 38 V 29 H 33 Z M 46 28 H 51 V 29 H 46 Z M 2 29 H 7 V 30 H 2 Z M 12 29 H 17 V 30 H 12 Z M 25 29 H 28 V 30 H 25 Z M 33 29 H 38 V 30 H 33 Z M 44 29 H 51 V 30 H 44 Z M 3 30 H 5 V 31 H 3 Z M 6 30 H 7 V 31 H 6 Z M 12 30 H 13 V 31 H 12 Z M 14 30 H 15 V 31 H 14 Z M 16 30 H 17 V 31 H 16 Z M 26 30 H 28 V 31 H 26 Z M 34 30 H 37 V 31 H 34 Z M 46 30 H 49 V 31 H 46 Z M 3 31 H 6 V 32 H 3 Z M 12 31 H 13 V 32 H 12 Z M 15 31 H 16 V 32 H 15 Z M 25 31 H 26 V 32 H 25 Z M 27 31 H 28 V 32 H 27 Z M 36 31 H 37 V 32 H 36 Z M 47 31 H 49 V 32 H 47 Z M 2 32 H 7 V 33 H 2 Z M 12 32 H 17 V 33 H 12 Z M 25 32 H 28 V 33 H 25 Z M 36 32 H 38 V 33 H 36 Z M 46 32 H 51 V 33 H 46 Z M 2 33 H 5 V 34 H 2 Z M 12 33 H 17 V 34 H 12 Z M 25 33 H 28 V 34 H 25 Z M 36 33 H 38 V 34 H 36 Z M 46 33 H 51 V 34 H 46 Z M 3 34 H 5 V 35 H 3 Z M 12 34 H 13 V 35 H 12 Z M 14 34 H 15 V 35 H 14 Z M 16 34 H 17 V 35 H 16 Z M 26 34 H 27 V 35 H 26 Z M 36 34 H 37 V 35 H 36 Z M 46 34 H 49 V 35 H 46 Z M 3 35 H 5 V 36 H 3 Z M 12 35 H 13 V 36 H 12 Z M 15 35 H 16 V 36 H 15 Z M 25 35 H 26 V 36 H 25 Z M 27 35 H 28 V 36 H 27 Z M 36 35 H 37 V 36 H 36 Z M 47 35 H 49 V 36 H 47 Z M 2 36 H 5 V 37 H 2 Z M 11 36 H 17 V 37 H 11 Z M 25 36 H 29 V 37 H 25 Z M 35 36 H 38 V 37 H 35 Z M 44 36 H 51 V 37 H 44 Z M 2 37 H 51 V 38 H 2 Z M 10 41 H 22 V 42 H 10 Z M 31 41 H 42 V 42 H 31 Z M 50 41 H 51 V 42 H 50 Z M 11 42 H 13 V 43 H 11 Z M 15 42 H 17 V 43 H 15 Z M 19 42 H 21 V 43 H 19 Z M 31 42 H 33 V 43 H 31 Z M 35 42 H 37 V 43 H 35 Z M 39 42 H 41 V 43 H 39 Z M 11 43 H 13 V 44 H 11 Z M 15 43 H 17 V 44 H 15 Z M 19 43 H 21 V 44 H 19 Z M 31 43 H 33 V 44 H 31 Z M 35 43 H 37 V 44 H 35 Z M 39 43 H 41 V 44 H 39 Z M 11 44 H 22 V 45 H 11 Z M 30 44 H 42 V 45 H 30 Z M 50 44 H 51 V 45 H 50 Z M 10 45 H 22 V 46 H 10 Z M 30 45 H 42 V 46 H 30 Z M 11 46 H 13 V 47 H 11 Z M 15 46 H 17 V 47 H 15 Z M 19 46 H 21 V 47 H 19 Z M 31 46 H 33 V 47 H 31 Z M 35 46 H 37 V 47 H 35 Z M 39 46 H 41 V 47 H 39 Z M 11 47 H 13 V 48 H 11 Z M 15 47 H 17 V 48 H 15 Z M 19 47 H 21 V 48 H 19 Z M 31 47 H 33 V 48 H 31 Z M 35 47 H 37 V 48 H 35 Z M 39 47 H 41 V 48 H 39 Z M 10 48 H 22 V 49 H 10 Z M 30 48 H 42 V 49 H 30 Z M 46 48 H 51 V 49 H 46 Z M 2 49 H 3 V 50 H 2 Z M 11 49 H 22 V 50 H 11 Z M 31 49 H 42 V 50 H 31 Z M 46 49 H 51 V 50 H 46 Z M 11 50 H 13 V 51 H 11 Z M 15 50 H 17 V 51 H 15 Z M 19 50 H 21 V 51 H 19 Z M 31 50 H 33 V 51 H 31 Z M 35 50 H 37 V 51 H 35 Z M 39 50 H 41 V 51 H 39 Z M 47 50 H 49 V 51 H 47 Z M 3 51 H 4 V 52 H 3 Z M 11 51 H 13 V 52 H 11 Z M 15 51 H 17 V 52 H 15 Z M 19 51 H 21 V 52 H 19 Z M 31 51 H 33 V 52 H 31 Z M 35 51 H 37 V 52 H 35 Z M 39 51 H 41 V 52 H 39 Z M 47 51 H 49 V 52 H 47 Z M 2 52 H 51 V 53 H 2 Z M 2 53 H 51 V 54 H 2 Z M 3 54 H 5 V 55 H 3 Z M 7 54 H 9 V 55 H 7 Z M 11 54 H 13 V 55 H 11 Z M 15 54 H 17 V 55 H 15 Z M 19 54 H 21 V 55 H 19 Z M 23 54 H 25 V 55 H 23 Z M 27 54 H 29 V 55 H 27 Z M 31 54 H 33 V 55 H 31 Z M 35 54 H 37 V 55 H 35 Z M 39 54 H 41 V 55 H 39 Z M 43 54 H 45 V 55 H 43 Z M 47 54 H 49 V 55 H 47 Z M 3 55 H 5 V 56 H 3 Z M 7 55 H 9 V 56 H 7 Z M 11 55 H 13 V 56 H 11 Z M 15 55 H 17 V 56 H 15 Z M 19 55 H 21 V 56 H 19 Z M 23 55 H 25 V 56 H 23 Z M 27 55 H 29 V 56 H 27 Z M 31 55 H 33 V 56 H 31 Z M 35 55 H 37 V 56 H 35 Z M 39 55 H 41 V 56 H 39 Z M 43 55 H 45 V 56 H 43 Z M 47 55 H 49 V 56 H 47 Z M 2 56 H 51 V 57 H 2 Z M 2 57 H 51 V 58 H 2 Z M 3 58 H 5 V 59 H 3 Z M 7 58 H 9 V 59 H 7 Z M 11 58 H 13 V 59 H 11 Z M 15 58 H 17 V 59 H 15 Z M 19 58 H 21 V 59 H 19 Z M 23 58 H 25 V 59 H 23 Z M 27 58 H 29 V 59 H 27 Z M 31 58 H 33 V 59 H 31 Z M 35 58 H 37 V 59 H 35 Z M 39 58 H 41 V 59 H 39 Z M 43 58 H 45 V 59 H 43 Z M 47 58 H 49 V 59 H 47 Z M 7 59 H 9 V 60 H 7 Z M 11 59 H 13 V 60 H 11 Z M 15 59 H 17 V 60 H 15 Z M 19 59 H 21 V 60 H 19 Z M 23 59 H 25 V 60 H 23 Z M 27 59 H 29 V 60 H 27 Z M 31 59 H 33 V 60 H 31 Z M 35 59 H 37 V 60 H 35 Z M 39 59 H 41 V 60 H 39 Z M 43 59 H 45 V 60 H 43 Z M 47 59 H 48 V 60 H 47 Z M 7 60 H 46 V 61 H 7 Z M 9 61 H 44 V 62 H 9 Z M 11 62 H 13 V 63 H 11 Z M 15 62 H 17 V 63 H 15 Z M 19 62 H 21 V 63 H 19 Z M 23 62 H 25 V 63 H 23 Z M 27 62 H 29 V 63 H 27 Z M 31 62 H 33 V 63 H 31 Z M 35 62 H 37 V 63 H 35 Z M 39 62 H 41 V 63 H 39 Z M 15 63 H 17 V 64 H 15 Z M 19 63 H 21 V 64 H 19 Z M 23 63 H 25 V 64 H 23 Z M 27 63 H 29 V 64 H 27 Z M 31 63 H 33 V 64 H 31 Z M 35 63 H 37 V 64 H 35 Z M 39 63 H 40 V 64 H 39 Z M 15 64 H 38 V 65 H 15 Z M 17 65 H 36 V 66 H 17 Z M 19 66 H 21 V 67 H 19 Z M 23 66 H 25 V 67 H 23 Z M 27 66 H 29 V 67 H 27 Z M 31 66 H 33 V 67 H 31 Z M 23 67 H 25 V 68 H 23 Z M 27 67 H 29 V 68 H 27 Z M 31 67 H 32 V 68 H 31 Z M 23 68 H 30 V 69 H 23 Z M 25 69 H 28 V 70 H 25 Z" fill="#104810" fill-rule="evenodd"/>
  <path d="M 1 2 H 2 V 3 H 1 Z M 1 6 H 2 V 7 H 1 Z M 46 7 H 47 V 8 H 46 Z M 1 10 H 2 V 11 H 1 Z M 46 11 H 47 V 12 H 46 Z M 1 14 H 2 V 15 H 1 Z M 38 14 H 39 V 15 H 38 Z M 5 15 H 6 V 16 H 5 Z M 1 18 H 2 V 19 H 1 Z M 1 22 H 2 V 23 H 1 Z M 14 23 H 15 V 24 H 14 Z M 1 26 H 2 V 27 H 1 Z M 5 26 H 6 V 27 H 5 Z M 14 27 H 15 V 28 H 14 Z M 1 30 H 2 V 31 H 1 Z M 5 30 H 6 V 31 H 5 Z M 14 31 H 15 V 32 H 14 Z M 26 31 H 27 V 32 H 26 Z M 1 34 H 2 V 35 H 1 Z M 1 38 H 2 V 39 H 1 Z M 50 39 H 51 V 40 H 50 Z M 1 42 H 2 V 43 H 1 Z M 1 46 H 2 V 47 H 1 Z M 1 50 H 2 V 51 H 1 Z M 1 54 H 2 V 55 H 1 Z" fill="#105018" fill-rule="evenodd"/>
  <path d="M 2 2 H 3 V 3 H 2 Z M 6 2 H 7 V 3 H 6 Z M 10 2 H 11 V 3 H 10 Z M 14 2 H 15 V 3 H 14 Z M 18 2 H 19 V 3 H 18 Z M 22 2 H 23 V 3 H 22 Z M 26 2 H 27 V 3 H 26 Z M 30 2 H 31 V 3 H 30 Z M 34 2 H 35 V 3 H 34 Z M 38 2 H 39 V 3 H 38 Z M 42 2 H 43 V 3 H 42 Z M 46 2 H 47 V 3 H 46 Z M 50 2 H 51 V 3 H 50 Z M 1 3 H 2 V 4 H 1 Z M 5 3 H 6 V 4 H 5 Z M 9 3 H 10 V 4 H 9 Z M 13 3 H 14 V 4 H 13 Z M 17 3 H 18 V 4 H 17 Z M 21 3 H 22 V 4 H 21 Z M 25 3 H 26 V 4 H 25 Z M 29 3 H 30 V 4 H 29 Z M 33 3 H 34 V 4 H 33 Z M 37 3 H 38 V 4 H 37 Z M 41 3 H 42 V 4 H 41 Z M 45 3 H 46 V 4 H 45 Z M 49 3 H 50 V 4 H 49 Z M 2 6 H 3 V 7 H 2 Z M 13 6 H 14 V 7 H 13 Z M 50 6 H 51 V 7 H 50 Z M 1 7 H 2 V 8 H 1 Z M 49 7 H 50 V 8 H 49 Z M 2 10 H 3 V 11 H 2 Z M 29 10 H 30 V 11 H 29 Z M 46 10 H 47 V 11 H 46 Z M 50 10 H 51 V 11 H 50 Z M 1 11 H 2 V 12 H 1 Z M 21 11 H 22 V 12 H 21 Z M 49 11 H 50 V 12 H 49 Z M 2 14 H 3 V 15 H 2 Z M 9 14 H 11 V 15 H 9 Z M 50 14 H 51 V 15 H 50 Z M 1 15 H 2 V 16 H 1 Z M 13 15 H 14 V 16 H 13 Z M 38 15 H 39 V 16 H 38 Z M 49 15 H 50 V 16 H 49 Z M 2 18 H 3 V 19 H 2 Z M 6 18 H 7 V 19 H 6 Z M 10 18 H 11 V 19 H 10 Z M 14 18 H 15 V 19 H 14 Z M 18 18 H 19 V 19 H 18 Z M 22 18 H 23 V 19 H 22 Z M 26 18 H 27 V 19 H 26 Z M 30 18 H 31 V 19 H 30 Z M 34 18 H 35 V 19 H 34 Z M 38 18 H 39 V 19 H 38 Z M 42 18 H 43 V 19 H 42 Z M 46 18 H 47 V 19 H 46 Z M 50 18 H 51 V 19 H 50 Z M 1 19 H 2 V 20 H 1 Z M 5 19 H 6 V 20 H 5 Z M 9 19 H 10 V 20 H 9 Z M 13 19 H 14 V 20 H 13 Z M 17 19 H 18 V 20 H 17 Z M 21 19 H 22 V 20 H 21 Z M 25 19 H 26 V 20 H 25 Z M 29 19 H 30 V 20 H 29 Z M 33 19 H 34 V 20 H 33 Z M 37 19 H 38 V 20 H 37 Z M 41 19 H 42 V 20 H 41 Z M 45 19 H 46 V 20 H 45 Z M 49 19 H 50 V 20 H 49 Z M 2 22 H 3 V 23 H 2 Z M 13 22 H 14 V 23 H 13 Z M 50 22 H 51 V 23 H 50 Z M 1 23 H 2 V 24 H 1 Z M 37 23 H 38 V 24 H 37 Z M 49 23 H 50 V 24 H 49 Z M 2 26 H 3 V 27 H 2 Z M 50 26 H 51 V 27 H 50 Z M 1 27 H 2 V 28 H 1 Z M 13 27 H 14 V 28 H 13 Z M 37 27 H 38 V 28 H 37 Z M 49 27 H 50 V 28 H 49 Z M 2 30 H 3 V 31 H 2 Z M 50 30 H 51 V 31 H 50 Z M 1 31 H 2 V 32 H 1 Z M 13 31 H 14 V 32 H 13 Z M 37 31 H 38 V 32 H 37 Z M 49 31 H 50 V 32 H 49 Z M 2 34 H 3 V 35 H 2 Z M 50 34 H 51 V 35 H 50 Z M 1 35 H 2 V 36 H 1 Z M 13 35 H 14 V 36 H 13 Z M 37 35 H 38 V 36 H 37 Z M 49 35 H 50 V 36 H 49 Z M 50 38 H 51 V 39 H 50 Z M 1 39 H 2 V 40 H 1 Z M 30 41 H 31 V 42 H 30 Z M 14 42 H 15 V 43 H 14 Z M 18 42 H 19 V 43 H 18 Z M 30 42 H 31 V 43 H 30 Z M 34 42 H 35 V 43 H 34 Z M 38 42 H 39 V 43 H 38 Z M 1 43 H 2 V 44 H 1 Z M 13 43 H 14 V 44 H 13 Z M 17 43 H 18 V 44 H 17 Z M 21 43 H 22 V 44 H 21 Z M 33 43 H 34 V 44 H 33 Z M 37 43 H 38 V 44 H 37 Z M 41 43 H 42 V 44 H 41 Z M 10 44 H 11 V 45 H 10 Z M 50 45 H 51 V 46 H 50 Z M 10 46 H 11 V 47 H 10 Z M 14 46 H 15 V 47 H 14 Z M 18 46 H 19 V 47 H 18 Z M 30 46 H 31 V 47 H 30 Z M 34 46 H 35 V 47 H 34 Z M 38 46 H 39 V 47 H 38 Z M 50 46 H 51 V 47 H 50 Z M 1 47 H 2 V 48 H 1 Z M 13 47 H 14 V 48 H 13 Z M 17 47 H 18 V 48 H 17 Z M 21 47 H 22 V 48 H 21 Z M 33 47 H 34 V 48 H 33 Z M 37 47 H 38 V 48 H 37 Z M 41 47 H 42 V 48 H 41 Z M 49 47 H 50 V 48 H 49 Z M 10 49 H 11 V 50 H 10 Z M 30 49 H 31 V 50 H 30 Z M 2 50 H 3 V 51 H 2 Z M 10 50 H 11 V 51 H 10 Z M 14 50 H 15 V 51 H 14 Z M 18 50 H 19 V 51 H 18 Z M 30 50 H 31 V 51 H 30 Z M 34 50 H 35 V 51 H 34 Z M 38 50 H 39 V 51 H 38 Z M 50 50 H 51 V 51 H 50 Z M 1 51 H 2 V 52 H 1 Z M 9 51 H 10 V 52 H 9 Z M 13 51 H 14 V 52 H 13 Z M 17 51 H 18 V 52 H 17 Z M 21 51 H 22 V 52 H 21 Z M 29 51 H 30 V 52 H 29 Z M 33 51 H 34 V 52 H 33 Z M 37 51 H 38 V 52 H 37 Z M 41 51 H 42 V 52 H 41 Z M 49 51 H 50 V 52 H 49 Z M 2 54 H 3 V 55 H 2 Z M 6 54 H 7 V 55 H 6 Z M 10 54 H 11 V 55 H 10 Z M 14 54 H 15 V 55 H 14 Z M 18 54 H 19 V 55 H 18 Z M 22 54 H 23 V 55 H 22 Z M 26 54 H 27 V 55 H 26 Z M 30 54 H 31 V 55 H 30 Z M 34 54 H 35 V 55 H 34 Z M 38 54 H 39 V 55 H 38 Z M 42 54 H 43 V 55 H 42 Z M 46 54 H 47 V 55 H 46 Z M 50 54 H 51 V 55 H 50 Z M 1 55 H 2 V 56 H 1 Z M 5 55 H 6 V 56 H 5 Z M 9 55 H 10 V 56 H 9 Z M 13 55 H 14 V 56 H 13 Z M 17 55 H 18 V 56 H 17 Z M 21 55 H 22 V 56 H 21 Z M 25 55 H 26 V 56 H 25 Z M 29 55 H 30 V 56 H 29 Z M 33 55 H 34 V 56 H 33 Z M 37 55 H 38 V 56 H 37 Z M 41 55 H 42 V 56 H 41 Z M 45 55 H 46 V 56 H 45 Z M 49 55 H 50 V 56 H 49 Z M 2 58 H 3 V 59 H 2 Z M 6 58 H 7 V 59 H 6 Z M 10 58 H 11 V 59 H 10 Z M 14 58 H 15 V 59 H 14 Z M 18 58 H 19 V 59 H 18 Z M 22 58 H 23 V 59 H 22 Z M 26 58 H 27 V 59 H 26 Z M 30 58 H 31 V 59 H 30 Z M 34 58 H 35 V 59 H 34 Z M 38 58 H 39 V 59 H 38 Z M 42 58 H 43 V 59 H 42 Z M 46 58 H 47 V 59 H 46 Z M 5 59 H 6 V 60 H 5 Z M 9 59 H 10 V 60 H 9 Z M 13 59 H 14 V 60 H 13 Z M 17 59 H 18 V 60 H 17 Z M 21 59 H 22 V 60 H 21 Z M 25 59 H 26 V 60 H 25 Z M 29 59 H 30 V 60 H 29 Z M 33 59 H 34 V 60 H 33 Z M 37 59 H 38 V 60 H 37 Z M 41 59 H 42 V 60 H 41 Z M 45 59 H 46 V 60 H 45 Z M 10 62 H 11 V 63 H 10 Z M 14 62 H 15 V 63 H 14 Z M 18 62 H 19 V 63 H 18 Z M 22 62 H 23 V 63 H 22 Z M 26 62 H 27 V 63 H 26 Z M 30 62 H 31 V 63 H 30 Z M 34 62 H 35 V 63 H 34 Z M 38 62 H 39 V 63 H 38 Z M 13 63 H 14 V 64 H 13 Z M 17 63 H 18 V 64 H 17 Z M 21 63 H 22 V 64 H 21 Z M 25 63 H 26 V 64 H 25 Z M 29 63 H 30 V 64 H 29 Z M 33 63 H 34 V 64 H 33 Z M 37 63 H 38 V 64 H 37 Z M 18 66 H 19 V 67 H 18 Z M 22 66 H 23 V 67 H 22 Z M 26 66 H 27 V 67 H 26 Z M 30 66 H 31 V 67 H 30 Z M 21 67 H 22 V 68 H 21 Z M 25 67 H 26 V 68 H 25 Z M 29 67 H 30 V 68 H 29 Z" fill="#084810" fill-rule="evenodd"/>
  <path d="M 5 2 H 6 V 3 H 5 Z M 9 2 H 10 V 3 H 9 Z M 13 2 H 14 V 3 H 13 Z M 17 2 H 18 V 3 H 17 Z M 21 2 H 22 V 3 H 21 Z M 25 2 H 26 V 3 H 25 Z M 29 2 H 30 V 3 H 29 Z M 33 2 H 34 V 3 H 33 Z M 37 2 H 38 V 3 H 37 Z M 41 2 H 42 V 3 H 41 Z M 45 2 H 46 V 3 H 45 Z M 49 2 H 50 V 3 H 49 Z M 2 3 H 3 V 4 H 2 Z M 6 3 H 7 V 4 H 6 Z M 10 3 H 11 V 4 H 10 Z M 14 3 H 15 V 4 H 14 Z M 18 3 H 19 V 4 H 18 Z M 22 3 H 23 V 4 H 22 Z M 26 3 H 27 V 4 H 26 Z M 30 3 H 31 V 4 H 30 Z M 34 3 H 35 V 4 H 34 Z M 38 3 H 39 V 4 H 38 Z M 42 3 H 43 V 4 H 42 Z M 46 3 H 47 V 4 H 46 Z M 50 3 H 51 V 4 H 50 Z M 49 6 H 50 V 7 H 49 Z M 2 7 H 3 V 8 H 2 Z M 50 7 H 51 V 8 H 50 Z M 21 10 H 22 V 11 H 21 Z M 49 10 H 50 V 11 H 49 Z M 2 11 H 3 V 12 H 2 Z M 50 11 H 51 V 12 H 50 Z M 13 14 H 14 V 15 H 13 Z M 49 14 H 50 V 15 H 49 Z M 2 15 H 3 V 16 H 2 Z M 10 15 H 11 V 16 H 10 Z M 46 15 H 47 V 16 H 46 Z M 50 15 H 51 V 16 H 50 Z M 5 18 H 6 V 19 H 5 Z M 9 18 H 10 V 19 H 9 Z M 13 18 H 14 V 19 H 13 Z M 17 18 H 18 V 19 H 17 Z M 21 18 H 22 V 19 H 21 Z M 25 18 H 26 V 19 H 25 Z M 29 18 H 30 V 19 H 29 Z M 33 18 H 34 V 19 H 33 Z M 37 18 H 38 V 19 H 37 Z M 41 18 H 42 V 19 H 41 Z M 45 18 H 46 V 19 H 45 Z M 49 18 H 50 V 19 H 49 Z M 2 19 H 3 V 20 H 2 Z M 6 19 H 7 V 20 H 6 Z M 10 19 H 11 V 20 H 10 Z M 14 19 H 15 V 20 H 14 Z M 18 19 H 19 V 20 H 18 Z M 22 19 H 23 V 20 H 22 Z M 26 19 H 27 V 20 H 26 Z M 30 19 H 31 V 20 H 30 Z M 34 19 H 35 V 20 H 34 Z M 38 19 H 39 V 20 H 38 Z M 42 19 H 43 V 20 H 42 Z M 46 19 H 47 V 20 H 46 Z M 50 19 H 51 V 20 H 50 Z M 37 22 H 38 V 23 H 37 Z M 49 22 H 50 V 23 H 49 Z M 2 23 H 3 V 24 H 2 Z M 50 23 H 51 V 24 H 50 Z M 13 26 H 14 V 27 H 13 Z M 37 26 H 38 V 27 H 37 Z M 49 26 H 50 V 27 H 49 Z M 2 27 H 3 V 28 H 2 Z M 50 27 H 51 V 28 H 50 Z M 13 30 H 14 V 31 H 13 Z M 37 30 H 38 V 31 H 37 Z M 49 30 H 50 V 31 H 49 Z M 2 31 H 3 V 32 H 2 Z M 50 31 H 51 V 32 H 50 Z M 13 34 H 14 V 35 H 13 Z M 37 34 H 38 V 35 H 37 Z M 49 34 H 50 V 35 H 49 Z M 2 35 H 3 V 36 H 2 Z M 14 35 H 15 V 36 H 14 Z M 50 35 H 51 V 36 H 50 Z M 13 42 H 14 V 43 H 13 Z M 17 42 H 18 V 43 H 17 Z M 21 42 H 22 V 43 H 21 Z M 33 42 H 34 V 43 H 33 Z M 37 42 H 38 V 43 H 37 Z M 41 42 H 42 V 43 H 41 Z M 10 43 H 11 V 44 H 10 Z M 14 43 H 15 V 44 H 14 Z M 18 43 H 19 V 44 H 18 Z M 30 43 H 31 V 44 H 30 Z M 34 43 H 35 V 44 H 34 Z M 38 43 H 39 V 44 H 38 Z M 50 43 H 51 V 44 H 50 Z M 13 46 H 14 V 47 H 13 Z M 17 46 H 18 V 47 H 17 Z M 21 46 H 22 V 47 H 21 Z M 33 46 H 34 V 47 H 33 Z M 37 46 H 38 V 47 H 37 Z M 41 46 H 42 V 47 H 41 Z M 14 47 H 15 V 48 H 14 Z M 18 47 H 19 V 48 H 18 Z M 30 47 H 31 V 48 H 30 Z M 34 47 H 35 V 48 H 34 Z M 38 47 H 39 V 48 H 38 Z M 50 47 H 51 V 48 H 50 Z M 13 50 H 14 V 51 H 13 Z M 17 50 H 18 V 51 H 17 Z M 21 50 H 22 V 51 H 21 Z M 33 50 H 34 V 51 H 33 Z M 37 50 H 38 V 51 H 37 Z M 41 50 H 42 V 51 H 41 Z M 49 50 H 50 V 51 H 49 Z M 2 51 H 3 V 52 H 2 Z M 10 51 H 11 V 52 H 10 Z M 14 51 H 15 V 52 H 14 Z M 18 51 H 19 V 52 H 18 Z M 22 51 H 23 V 52 H 22 Z M 30 51 H 31 V 52 H 30 Z M 34 51 H 35 V 52 H 34 Z M 38 51 H 39 V 52 H 38 Z M 46 51 H 47 V 52 H 46 Z M 50 51 H 51 V 52 H 50 Z M 5 54 H 6 V 55 H 5 Z M 9 54 H 10 V 55 H 9 Z M 13 54 H 14 V 55 H 13 Z M 17 54 H 18 V 55 H 17 Z M 21 54 H 22 V 55 H 21 Z M 25 54 H 26 V 55 H 25 Z M 29 54 H 30 V 55 H 29 Z M 33 54 H 34 V 55 H 33 Z M 37 54 H 38 V 55 H 37 Z M 41 54 H 42 V 55 H 41 Z M 45 54 H 46 V 55 H 45 Z M 49 54 H 50 V 55 H 49 Z M 2 55 H 3 V 56 H 2 Z M 6 55 H 7 V 56 H 6 Z M 10 55 H 11 V 56 H 10 Z M 14 55 H 15 V 56 H 14 Z M 18 55 H 19 V 56 H 18 Z M 22 55 H 23 V 56 H 22 Z M 26 55 H 27 V 56 H 26 Z M 30 55 H 31 V 56 H 30 Z M 34 55 H 35 V 56 H 34 Z M 38 55 H 39 V 56 H 38 Z M 42 55 H 43 V 56 H 42 Z M 46 55 H 47 V 56 H 46 Z M 50 55 H 51 V 56 H 50 Z M 5 58 H 6 V 59 H 5 Z M 9 58 H 10 V 59 H 9 Z M 13 58 H 14 V 59 H 13 Z M 17 58 H 18 V 59 H 17 Z M 21 58 H 22 V 59 H 21 Z M 25 58 H 26 V 59 H 25 Z M 29 58 H 30 V 59 H 29 Z M 33 58 H 34 V 59 H 33 Z M 37 58 H 38 V 59 H 37 Z M 41 58 H 42 V 59 H 41 Z M 45 58 H 46 V 59 H 45 Z M 49 58 H 50 V 59 H 49 Z M 6 59 H 7 V 60 H 6 Z M 10 59 H 11 V 60 H 10 Z M 14 59 H 15 V 60 H 14 Z M 18 59 H 19 V 60 H 18 Z M 22 59 H 23 V 60 H 22 Z M 26 59 H 27 V 60 H 26 Z M 30 59 H 31 V 60 H 30 Z M 34 59 H 35 V 60 H 34 Z M 38 59 H 39 V 60 H 38 Z M 42 59 H 43 V 60 H 42 Z M 46 59 H 47 V 60 H 46 Z M 13 62 H 14 V 63 H 13 Z M 17 62 H 18 V 63 H 17 Z M 21 62 H 22 V 63 H 21 Z M 25 62 H 26 V 63 H 25 Z M 29 62 H 30 V 63 H 29 Z M 33 62 H 34 V 63 H 33 Z M 37 62 H 38 V 63 H 37 Z M 41 62 H 42 V 63 H 41 Z M 14 63 H 15 V 64 H 14 Z M 18 63 H 19 V 64 H 18 Z M 22 63 H 23 V 64 H 22 Z M 26 63 H 27 V 64 H 26 Z M 30 63 H 31 V 64 H 30 Z M 34 63 H 35 V 64 H 34 Z M 38 63 H 39 V 64 H 38 Z M 21 66 H 22 V 67 H 21 Z M 25 66 H 26 V 67 H 25 Z M 29 66 H 30 V 67 H 29 Z M 33 66 H 34 V 67 H 33 Z M 22 67 H 23 V 68 H 22 Z M 26 67 H 27 V 68 H 26 Z M 30 67 H 31 V 68 H 30 Z" fill="#104818" fill-rule="evenodd"/>
  <path d="M 5 4 H 6 V 5 H 5 Z M 22 4 H 23 V 5 H 22 Z M 30 4 H 31 V 5 H 30 Z M 39 4 H 40 V 5 H 39 Z M 38 5 H 39 V 6 H 38 Z M 12 8 H 13 V 9 H 12 Z M 16 8 H 17 V 9 H 16 Z M 12 11 H 13 V 12 H 12 Z M 14 12 H 15 V 13 H 14 Z M 5 21 H 6 V 22 H 5 Z M 18 21 H 19 V 22 H 18 Z M 29 21 H 30 V 22 H 29 Z M 38 21 H 39 V 22 H 38 Z M 28 22 H 29 V 23 H 28 Z M 5 24 H 6 V 25 H 5 Z M 45 26 H 46 V 27 H 45 Z M 24 27 H 25 V 28 H 24 Z M 32 27 H 33 V 28 H 32 Z M 24 31 H 25 V 32 H 24 Z M 5 33 H 6 V 34 H 5 Z M 45 34 H 46 V 35 H 45 Z M 28 35 H 29 V 36 H 28 Z M 5 36 H 6 V 37 H 5 Z M 17 36 H 18 V 37 H 17 Z M 29 36 H 30 V 37 H 29 Z M 38 36 H 39 V 37 H 38 Z" fill="#185818" fill-rule="evenodd"/>
  <path d="M 6 4 H 7 V 5 H 6 Z M 11 4 H 12 V 5 H 11 Z M 15 4 H 16 V 5 H 15 Z M 20 4 H 21 V 5 H 20 Z M 28 4 H 29 V 5 H 28 Z M 35 4 H 36 V 5 H 35 Z M 40 4 H 41 V 5 H 40 Z M 43 4 H 44 V 5 H 43 Z M 11 7 H 12 V 8 H 11 Z M 15 7 H 16 V 8 H 15 Z M 28 7 H 29 V 8 H 28 Z M 28 12 H 29 V 13 H 28 Z M 15 15 H 16 V 16 H 15 Z M 20 15 H 21 V 16 H 20 Z M 28 15 H 29 V 16 H 28 Z M 43 15 H 44 V 16 H 43 Z M 6 21 H 7 V 22 H 6 Z M 11 21 H 12 V 22 H 11 Z M 19 21 H 20 V 22 H 19 Z M 30 21 H 31 V 22 H 30 Z M 39 21 H 40 V 22 H 39 Z M 6 24 H 7 V 25 H 6 Z M 11 24 H 12 V 25 H 11 Z M 6 33 H 7 V 34 H 6 Z M 6 36 H 7 V 37 H 6 Z M 18 36 H 19 V 37 H 18 Z M 30 36 H 31 V 37 H 30 Z M 39 36 H 40 V 37 H 39 Z M 2 40 H 3 V 41 H 2 Z M 49 40 H 50 V 41 H 49 Z" fill="#386838" fill-rule="evenodd"/>
  <path d="M 7 4 H 11 V 5 H 7 Z M 16 4 H 20 V 5 H 16 Z M 24 4 H 28 V 5 H 24 Z M 32 4 H 35 V 5 H 32 Z M 41 4 H 43 V 5 H 41 Z M 22 6 H 23 V 7 H 22 Z M 30 6 H 31 V 7 H 30 Z M 5 7 H 6 V 8 H 5 Z M 16 7 H 17 V 8 H 16 Z M 27 7 H 28 V 8 H 27 Z M 37 7 H 38 V 8 H 37 Z M 45 7 H 46 V 8 H 45 Z M 5 8 H 6 V 9 H 5 Z M 22 8 H 23 V 9 H 22 Z M 30 8 H 31 V 9 H 30 Z M 37 8 H 39 V 9 H 37 Z M 41 8 H 43 V 9 H 41 Z M 45 8 H 46 V 9 H 45 Z M 5 9 H 6 V 10 H 5 Z M 22 9 H 23 V 10 H 22 Z M 30 9 H 31 V 10 H 30 Z M 38 9 H 39 V 10 H 38 Z M 41 9 H 43 V 10 H 41 Z M 45 9 H 46 V 10 H 45 Z M 15 10 H 16 V 11 H 15 Z M 22 10 H 23 V 11 H 22 Z M 30 10 H 31 V 11 H 30 Z M 38 10 H 39 V 11 H 38 Z M 42 10 H 43 V 11 H 42 Z M 5 11 H 6 V 12 H 5 Z M 41 11 H 42 V 12 H 41 Z M 45 11 H 46 V 12 H 45 Z M 5 12 H 6 V 13 H 5 Z M 8 12 H 9 V 13 H 8 Z M 27 12 H 28 V 13 H 27 Z M 30 12 H 31 V 13 H 30 Z M 33 12 H 35 V 13 H 33 Z M 37 12 H 39 V 13 H 37 Z M 45 12 H 46 V 13 H 45 Z M 5 13 H 6 V 14 H 5 Z M 8 13 H 9 V 14 H 8 Z M 22 13 H 23 V 14 H 22 Z M 30 13 H 31 V 14 H 30 Z M 33 13 H 35 V 14 H 33 Z M 37 13 H 38 V 14 H 37 Z M 16 15 H 18 V 16 H 16 Z M 19 15 H 20 V 16 H 19 Z M 24 15 H 26 V 16 H 24 Z M 27 15 H 28 V 16 H 27 Z M 7 21 H 11 V 22 H 7 Z M 20 21 H 21 V 22 H 20 Z M 31 21 H 32 V 22 H 31 Z M 34 23 H 35 V 24 H 34 Z M 44 23 H 45 V 24 H 44 Z M 17 24 H 18 V 25 H 17 Z M 23 24 H 24 V 25 H 23 Z M 28 24 H 29 V 25 H 28 Z M 34 24 H 35 V 25 H 34 Z M 38 24 H 39 V 25 H 38 Z M 44 24 H 45 V 25 H 44 Z M 7 25 H 8 V 26 H 7 Z M 10 25 H 11 V 26 H 10 Z M 17 25 H 18 V 26 H 17 Z M 23 25 H 24 V 26 H 23 Z M 28 25 H 29 V 26 H 28 Z M 38 25 H 39 V 26 H 38 Z M 44 25 H 45 V 26 H 44 Z M 10 26 H 11 V 27 H 10 Z M 23 26 H 24 V 27 H 23 Z M 28 26 H 29 V 27 H 28 Z M 44 26 H 45 V 27 H 44 Z M 7 27 H 8 V 28 H 7 Z M 17 27 H 18 V 28 H 17 Z M 23 27 H 24 V 28 H 23 Z M 28 27 H 29 V 28 H 28 Z M 31 27 H 32 V 28 H 31 Z M 7 28 H 8 V 29 H 7 Z M 10 28 H 11 V 29 H 10 Z M 17 28 H 18 V 29 H 17 Z M 23 28 H 24 V 29 H 23 Z M 28 28 H 29 V 29 H 28 Z M 31 28 H 32 V 29 H 31 Z M 38 28 H 39 V 29 H 38 Z M 7 29 H 8 V 30 H 7 Z M 10 29 H 11 V 30 H 10 Z M 17 29 H 18 V 30 H 17 Z M 23 29 H 24 V 30 H 23 Z M 28 29 H 29 V 30 H 28 Z M 31 29 H 32 V 30 H 31 Z M 38 29 H 39 V 30 H 38 Z M 10 30 H 11 V 31 H 10 Z M 23 30 H 24 V 31 H 23 Z M 28 30 H 29 V 31 H 28 Z M 31 30 H 32 V 31 H 31 Z M 7 31 H 8 V 32 H 7 Z M 17 31 H 18 V 32 H 17 Z M 23 31 H 24 V 32 H 23 Z M 28 31 H 29 V 32 H 28 Z M 7 32 H 8 V 33 H 7 Z M 10 32 H 11 V 33 H 10 Z M 17 32 H 18 V 33 H 17 Z M 23 32 H 24 V 33 H 23 Z M 28 32 H 29 V 33 H 28 Z M 38 32 H 39 V 33 H 38 Z M 44 32 H 45 V 33 H 44 Z M 10 33 H 11 V 34 H 10 Z M 17 33 H 18 V 34 H 17 Z M 23 33 H 24 V 34 H 23 Z M 28 33 H 29 V 34 H 28 Z M 34 33 H 35 V 34 H 34 Z M 38 33 H 39 V 34 H 38 Z M 44 33 H 45 V 34 H 44 Z M 23 34 H 24 V 35 H 23 Z M 44 34 H 45 V 35 H 44 Z M 7 36 H 8 V 37 H 7 Z M 31 36 H 32 V 37 H 31 Z M 3 38 H 5 V 39 H 3 Z M 6 38 H 9 V 39 H 6 Z M 10 38 H 13 V 39 H 10 Z M 14 38 H 17 V 39 H 14 Z M 18 38 H 21 V 39 H 18 Z M 22 38 H 25 V 39 H 22 Z M 26 38 H 29 V 39 H 26 Z M 30 38 H 33 V 39 H 30 Z M 34 38 H 37 V 39 H 34 Z M 38 38 H 41 V 39 H 38 Z M 42 38 H 45 V 39 H 42 Z M 46 38 H 49 V 39 H 46 Z M 9 40 H 22 V 41 H 9 Z M 30 40 H 42 V 41 H 30 Z" fill="#487848" fill-rule="evenodd"/>
  <path d="M 12 4 H 13 V 5 H 12 Z M 14 4 H 15 V 5 H 14 Z M 21 4 H 22 V 5 H 21 Z M 29 4 H 30 V 5 H 29 Z M 36 4 H 37 V 5 H 36 Z M 44 4 H 45 V 5 H 44 Z M 12 7 H 13 V 8 H 12 Z M 11 8 H 12 V 9 H 11 Z M 28 8 H 29 V 9 H 28 Z M 20 9 H 21 V 10 H 20 Z M 11 11 H 12 V 12 H 11 Z M 19 11 H 20 V 12 H 19 Z M 28 11 H 29 V 12 H 28 Z M 21 12 H 22 V 13 H 21 Z M 29 12 H 30 V 13 H 29 Z M 39 15 H 40 V 16 H 39 Z M 44 15 H 45 V 16 H 44 Z M 12 21 H 13 V 22 H 12 Z M 12 24 H 13 V 25 H 12 Z M 44 28 H 45 V 29 H 44 Z" fill="#205820" fill-rule="evenodd"/>
  <path d="M 13 4 H 14 V 5 H 13 Z M 37 4 H 38 V 5 H 37 Z M 45 4 H 46 V 5 H 45 Z M 13 5 H 14 V 6 H 13 Z M 21 8 H 22 V 9 H 21 Z M 29 8 H 30 V 9 H 29 Z M 21 9 H 22 V 10 H 21 Z M 29 9 H 30 V 10 H 29 Z M 20 10 H 21 V 11 H 20 Z M 20 11 H 21 V 12 H 20 Z M 46 13 H 47 V 14 H 46 Z M 13 21 H 14 V 22 H 13 Z M 45 21 H 46 V 22 H 45 Z M 35 23 H 36 V 24 H 35 Z M 13 24 H 14 V 25 H 13 Z M 35 25 H 36 V 26 H 35 Z M 35 26 H 36 V 27 H 35 Z M 45 27 H 46 V 28 H 45 Z M 45 28 H 46 V 29 H 45 Z M 35 31 H 36 V 32 H 35 Z M 35 32 H 36 V 33 H 35 Z M 45 35 H 46 V 36 H 45 Z M 24 36 H 25 V 37 H 24 Z" fill="#084808" fill-rule="evenodd"/>
  <path d="M 23 4 H 24 V 5 H 23 Z M 31 4 H 32 V 5 H 31 Z M 13 8 H 14 V 9 H 13 Z M 13 11 H 14 V 12 H 13 Z M 23 15 H 24 V 16 H 23 Z M 31 15 H 32 V 16 H 31 Z M 35 15 H 36 V 16 H 35 Z M 42 21 H 43 V 22 H 42 Z M 32 26 H 33 V 27 H 32 Z M 21 36 H 22 V 37 H 21 Z M 42 36 H 43 V 37 H 42 Z" fill="#406840" fill-rule="evenodd"/>
  <path d="M 5 5 H 6 V 6 H 5 Z M 14 5 H 15 V 6 H 14 Z M 22 5 H 23 V 6 H 22 Z M 30 5 H 31 V 6 H 30 Z M 10 8 H 11 V 9 H 10 Z M 14 8 H 15 V 9 H 14 Z M 27 8 H 28 V 9 H 27 Z M 12 9 H 13 V 10 H 12 Z M 16 9 H 17 V 10 H 16 Z M 12 10 H 13 V 11 H 12 Z M 27 11 H 28 V 12 H 27 Z M 20 12 H 21 V 13 H 20 Z M 14 13 H 15 V 14 H 14 Z M 7 15 H 8 V 16 H 7 Z M 32 15 H 33 V 16 H 32 Z M 36 15 H 37 V 16 H 36 Z M 40 15 H 41 V 16 H 40 Z M 21 21 H 22 V 22 H 21 Z M 32 21 H 33 V 22 H 32 Z M 40 21 H 41 V 22 H 40 Z M 43 21 H 44 V 22 H 43 Z M 5 22 H 6 V 23 H 5 Z M 17 23 H 18 V 24 H 17 Z M 28 23 H 29 V 24 H 28 Z M 33 31 H 34 V 32 H 33 Z M 28 34 H 29 V 35 H 28 Z M 17 35 H 18 V 36 H 17 Z M 38 35 H 39 V 36 H 38 Z M 8 36 H 9 V 37 H 8 Z M 19 36 H 20 V 37 H 19 Z M 22 36 H 23 V 37 H 22 Z M 32 36 H 33 V 37 H 32 Z M 40 36 H 41 V 37 H 40 Z M 43 36 H 44 V 37 H 43 Z" fill="#387038" fill-rule="evenodd"/>
  <path d="M 12 5 H 13 V 6 H 12 Z M 21 5 H 22 V 6 H 21 Z M 29 5 H 30 V 6 H 29 Z M 12 6 H 13 V 7 H 12 Z M 20 8 H 21 V 9 H 20 Z M 11 9 H 12 V 10 H 11 Z M 15 9 H 16 V 10 H 15 Z M 28 9 H 29 V 10 H 28 Z M 37 9 H 38 V 10 H 37 Z M 11 10 H 12 V 11 H 11 Z M 19 10 H 20 V 11 H 19 Z M 28 10 H 29 V 11 H 28 Z M 37 11 H 38 V 12 H 37 Z M 21 13 H 22 V 14 H 21 Z M 29 13 H 30 V 14 H 29 Z M 38 13 H 39 V 14 H 38 Z M 45 13 H 46 V 14 H 45 Z M 8 14 H 9 V 15 H 8 Z M 12 22 H 13 V 23 H 12 Z M 44 22 H 45 V 23 H 44 Z M 12 23 H 13 V 24 H 12 Z M 23 23 H 24 V 24 H 23 Z M 34 25 H 35 V 26 H 34 Z M 44 30 H 45 V 31 H 44 Z M 34 32 H 35 V 33 H 34 Z M 10 34 H 11 V 35 H 10 Z M 34 34 H 35 V 35 H 34 Z M 23 35 H 24 V 36 H 23 Z M 44 35 H 45 V 36 H 44 Z" fill="#407040" fill-rule="evenodd"/>
  <path d="M 36 5 H 37 V 6 H 36 Z M 44 5 H 45 V 6 H 44 Z M 44 14 H 45 V 15 H 44 Z M 31 26 H 32 V 27 H 31 Z M 31 31 H 32 V 32 H 31 Z M 9 35 H 10 V 36 H 9 Z M 33 35 H 34 V 36 H 33 Z" fill="#588858" fill-rule="evenodd"/>
  <path d="M 37 5 H 38 V 6 H 37 Z M 45 5 H 46 V 6 H 45 Z M 21 7 H 22 V 8 H 21 Z M 29 7 H 30 V 8 H 29 Z M 15 8 H 16 V 9 H 15 Z M 8 15 H 9 V 16 H 8 Z M 21 15 H 22 V 16 H 21 Z M 29 15 H 30 V 16 H 29 Z M 33 15 H 34 V 16 H 33 Z M 37 15 H 38 V 16 H 37 Z M 22 21 H 23 V 22 H 22 Z M 33 21 H 34 V 22 H 33 Z M 44 21 H 45 V 22 H 44 Z M 23 22 H 24 V 23 H 23 Z M 34 22 H 35 V 23 H 34 Z M 34 26 H 35 V 27 H 34 Z M 9 36 H 10 V 37 H 9 Z M 23 36 H 24 V 37 H 23 Z M 33 36 H 34 V 37 H 33 Z" fill="#205020" fill-rule="evenodd"/>
  <path d="M 39 5 H 40 V 6 H 39 Z M 39 14 H 40 V 15 H 39 Z M 18 22 H 19 V 23 H 18 Z M 29 22 H 30 V 23 H 29 Z" fill="#588058" fill-rule="evenodd"/>
  <path d="M 46 5 H 47 V 6 H 46 Z M 23 21 H 24 V 22 H 23 Z M 34 21 H 35 V 22 H 34 Z M 24 22 H 25 V 23 H 24 Z M 11 35 H 12 V 36 H 11 Z M 35 35 H 36 V 36 H 35 Z M 10 36 H 11 V 37 H 10 Z M 34 36 H 35 V 37 H 34 Z" fill="#085008" fill-rule="evenodd"/>
  <path d="M 5 6 H 6 V 7 H 5 Z M 10 7 H 11 V 8 H 10 Z M 22 7 H 23 V 8 H 22 Z M 30 7 H 31 V 8 H 30 Z M 38 7 H 39 V 8 H 38 Z M 5 10 H 6 V 11 H 5 Z M 41 10 H 42 V 11 H 41 Z M 45 10 H 46 V 11 H 45 Z M 22 11 H 23 V 12 H 22 Z M 30 11 H 31 V 12 H 30 Z M 38 11 H 39 V 12 H 38 Z M 42 11 H 43 V 12 H 42 Z M 18 15 H 19 V 16 H 18 Z M 26 15 H 27 V 16 H 26 Z M 42 15 H 43 V 16 H 42 Z M 38 23 H 39 V 24 H 38 Z M 38 27 H 39 V 28 H 38 Z M 38 31 H 39 V 32 H 38 Z M 5 38 H 6 V 39 H 5 Z M 9 38 H 10 V 39 H 9 Z M 13 38 H 14 V 39 H 13 Z M 17 38 H 18 V 39 H 17 Z M 21 38 H 22 V 39 H 21 Z M 25 38 H 26 V 39 H 25 Z M 29 38 H 30 V 39 H 29 Z M 33 38 H 34 V 39 H 33 Z M 37 38 H 38 V 39 H 37 Z M 41 38 H 42 V 39 H 41 Z M 45 38 H 46 V 39 H 45 Z" fill="#487850" fill-rule="evenodd"/>
  <path d="M 14 6 H 15 V 7 H 14 Z M 38 6 H 39 V 7 H 38 Z M 14 14 H 15 V 15 H 14 Z M 22 14 H 23 V 15 H 22 Z M 30 14 H 31 V 15 H 30 Z M 34 14 H 35 V 15 H 34 Z M 5 23 H 6 V 24 H 5 Z M 5 35 H 6 V 36 H 5 Z" fill="#307038" fill-rule="evenodd"/>
  <path d="M 21 6 H 22 V 7 H 21 Z M 29 6 H 30 V 7 H 29 Z M 37 6 H 38 V 7 H 37 Z M 45 6 H 46 V 7 H 45 Z M 21 14 H 22 V 15 H 21 Z M 29 14 H 30 V 15 H 29 Z M 33 14 H 34 V 15 H 33 Z M 37 14 H 38 V 15 H 37 Z M 38 26 H 39 V 27 H 38 Z M 38 30 H 39 V 31 H 38 Z M 38 34 H 39 V 35 H 38 Z" fill="#407048" fill-rule="evenodd"/>
  <path d="M 46 6 H 47 V 7 H 46 Z M 13 7 H 14 V 8 H 13 Z M 29 11 H 30 V 12 H 29 Z M 46 14 H 47 V 15 H 46 Z M 9 15 H 10 V 16 H 9 Z M 45 15 H 46 V 16 H 45 Z M 13 23 H 14 V 24 H 13 Z" fill="#004808" fill-rule="evenodd"/>
  <path d="M 8 7 H 9 V 8 H 8 Z M 25 7 H 26 V 8 H 25 Z M 33 7 H 34 V 8 H 33 Z M 41 7 H 42 V 8 H 41 Z M 8 8 H 9 V 9 H 8 Z M 25 8 H 26 V 9 H 25 Z M 33 8 H 34 V 9 H 33 Z M 8 11 H 9 V 12 H 8 Z M 25 11 H 26 V 12 H 25 Z M 33 11 H 34 V 12 H 33 Z M 18 12 H 19 V 13 H 18 Z M 25 12 H 26 V 13 H 25 Z M 41 12 H 42 V 13 H 41 Z M 7 24 H 8 V 25 H 7 Z M 10 24 H 11 V 25 H 10 Z M 31 25 H 32 V 26 H 31 Z M 31 32 H 32 V 33 H 31 Z M 7 33 H 8 V 34 H 7 Z" fill="#78a078" fill-rule="evenodd"/>
  <path d="M 9 7 H 10 V 8 H 9 Z M 9 8 H 10 V 9 H 9 Z M 26 8 H 27 V 9 H 26 Z M 9 11 H 10 V 12 H 9 Z M 15 11 H 16 V 12 H 15 Z M 19 12 H 20 V 13 H 19 Z M 22 12 H 23 V 13 H 22 Z M 26 12 H 27 V 13 H 26 Z M 41 15 H 42 V 16 H 41 Z M 44 27 H 45 V 28 H 44 Z M 32 31 H 33 V 32 H 32 Z" fill="#487048" fill-rule="evenodd"/>
  <path d="M 14 7 H 15 V 8 H 14 Z" fill="#205828" fill-rule="evenodd"/>
  <path d="M 17 7 H 18 V 8 H 17 Z M 18 11 H 19 V 12 H 18 Z" fill="#709070" fill-rule="evenodd"/>
  <path d="M 20 7 H 21 V 8 H 20 Z M 19 9 H 20 V 10 H 19 Z M 16 10 H 17 V 11 H 16 Z M 15 12 H 16 V 13 H 15 Z M 43 28 H 44 V 29 H 43 Z M 43 29 H 44 V 30 H 43 Z M 20 35 H 21 V 36 H 20 Z M 41 35 H 42 V 36 H 41 Z" fill="#689068" fill-rule="evenodd"/>
  <path d="M 26 7 H 27 V 8 H 26 Z M 26 11 H 27 V 12 H 26 Z" fill="#487050" fill-rule="evenodd"/>
  <path d="M 34 7 H 35 V 8 H 34 Z M 42 7 H 43 V 8 H 42 Z" fill="#789880" fill-rule="evenodd"/>
  <path d="M 17 8 H 18 V 9 H 17 Z" fill="#688868" fill-rule="evenodd"/>
  <path d="M 34 8 H 35 V 9 H 34 Z M 42 12 H 43 V 13 H 42 Z" fill="#789878" fill-rule="evenodd"/>
  <path d="M 36 10 H 37 V 11 H 36 Z M 41 23 H 42 V 24 H 41 Z M 41 24 H 42 V 25 H 41 Z M 20 25 H 21 V 26 H 20 Z M 41 25 H 42 V 26 H 41 Z M 20 26 H 21 V 27 H 20 Z M 20 31 H 21 V 32 H 20 Z M 41 31 H 42 V 32 H 41 Z M 20 32 H 21 V 33 H 20 Z M 41 32 H 42 V 33 H 41 Z M 20 33 H 21 V 34 H 20 Z M 41 33 H 42 V 34 H 41 Z M 20 34 H 21 V 35 H 20 Z" fill="#88a888" fill-rule="evenodd"/>
  <path d="M 37 10 H 38 V 11 H 37 Z" fill="#286030" fill-rule="evenodd"/>
  <path d="M 10 11 H 11 V 12 H 10 Z M 14 11 H 15 V 12 H 14 Z M 5 14 H 6 V 15 H 5 Z M 5 34 H 6 V 35 H 5 Z" fill="#387040" fill-rule="evenodd"/>
  <path d="M 34 11 H 35 V 12 H 34 Z" fill="#80a080" fill-rule="evenodd"/>
  <path d="M 45 14 H 46 V 15 H 45 Z M 34 31 H 35 V 32 H 34 Z" fill="#205028" fill-rule="evenodd"/>
  <path d="M 6 15 H 7 V 16 H 6 Z M 49 38 H 50 V 39 H 49 Z" fill="#386840" fill-rule="evenodd"/>
  <path d="M 14 15 H 15 V 16 H 14 Z M 22 15 H 23 V 16 H 22 Z M 30 15 H 31 V 16 H 30 Z M 34 15 H 35 V 16 H 34 Z M 17 22 H 18 V 23 H 17 Z" fill="#185820" fill-rule="evenodd"/>
  <path d="M 41 21 H 42 V 22 H 41 Z M 20 36 H 21 V 37 H 20 Z M 41 36 H 42 V 37 H 41 Z" fill="#286028" fill-rule="evenodd"/>
  <path d="M 6 22 H 7 V 23 H 6 Z M 10 22 H 11 V 23 H 10 Z M 42 30 H 43 V 31 H 42 Z M 42 34 H 43 V 35 H 42 Z M 43 35 H 44 V 36 H 43 Z" fill="#f0f0f8" fill-rule="evenodd"/>
  <path d="M 15 22 H 16 V 23 H 15 Z M 25 22 H 26 V 23 H 25 Z M 27 22 H 28 V 23 H 27 Z M 16 23 H 17 V 24 H 16 Z M 26 23 H 27 V 24 H 26 Z M 46 23 H 47 V 24 H 46 Z M 15 26 H 16 V 27 H 15 Z M 25 26 H 26 V 27 H 25 Z M 6 27 H 7 V 28 H 6 Z M 16 27 H 17 V 28 H 16 Z M 26 27 H 27 V 28 H 26 Z M 34 27 H 35 V 28 H 34 Z M 46 27 H 47 V 28 H 46 Z M 15 30 H 16 V 31 H 15 Z M 25 30 H 26 V 31 H 25 Z M 33 30 H 34 V 31 H 33 Z M 6 31 H 7 V 32 H 6 Z M 16 31 H 17 V 32 H 16 Z M 46 31 H 47 V 32 H 46 Z M 15 34 H 16 V 35 H 15 Z M 25 34 H 26 V 35 H 25 Z M 27 34 H 28 V 35 H 27 Z M 16 35 H 17 V 36 H 16 Z M 26 35 H 27 V 36 H 26 Z M 46 35 H 47 V 36 H 46 Z M 9 46 H 10 V 47 H 9 Z" fill="#185018" fill-rule="evenodd"/>
  <path d="M 20 22 H 21 V 23 H 20 Z M 11 23 H 12 V 24 H 11 Z M 43 23 H 44 V 24 H 43 Z M 43 31 H 44 V 32 H 43 Z M 31 35 H 32 V 36 H 31 Z M 39 35 H 40 V 36 H 39 Z" fill="#f0f8f8" fill-rule="evenodd"/>
  <path d="M 22 22 H 23 V 23 H 22 Z" fill="#508058" fill-rule="evenodd"/>
  <path d="M 30 22 H 31 V 23 H 30 Z M 42 22 H 43 V 23 H 42 Z M 21 23 H 22 V 24 H 21 Z M 29 23 H 30 V 24 H 29 Z M 22 26 H 23 V 27 H 22 Z M 30 26 H 31 V 27 H 30 Z M 21 27 H 22 V 28 H 21 Z M 29 27 H 30 V 28 H 29 Z M 22 30 H 23 V 31 H 22 Z M 30 30 H 31 V 31 H 30 Z M 21 31 H 22 V 32 H 21 Z M 29 31 H 30 V 32 H 29 Z M 22 34 H 23 V 35 H 22 Z M 30 34 H 31 V 35 H 30 Z M 21 35 H 22 V 36 H 21 Z" fill="#f0f0f0" fill-rule="evenodd"/>
  <path d="M 33 22 H 34 V 23 H 33 Z" fill="#609060" fill-rule="evenodd"/>
  <path d="M 35 22 H 36 V 23 H 35 Z" fill="#105810" fill-rule="evenodd"/>
  <path d="M 38 22 H 39 V 23 H 38 Z M 2 38 H 3 V 39 H 2 Z" fill="#306838" fill-rule="evenodd"/>
  <path d="M 41 22 H 42 V 23 H 41 Z" fill="#709870" fill-rule="evenodd"/>
  <path d="M 20 24 H 21 V 25 H 20 Z M 31 24 H 32 V 25 H 31 Z M 20 27 H 21 V 28 H 20 Z M 41 27 H 42 V 28 H 41 Z M 20 30 H 21 V 31 H 20 Z M 31 33 H 32 V 34 H 31 Z" fill="#a8c0a8" fill-rule="evenodd"/>
  <path d="M 7 26 H 8 V 27 H 7 Z M 17 26 H 18 V 27 H 17 Z M 10 27 H 11 V 28 H 10 Z M 7 30 H 8 V 31 H 7 Z M 17 30 H 18 V 31 H 17 Z M 10 31 H 11 V 32 H 10 Z M 44 31 H 45 V 32 H 44 Z M 17 34 H 18 V 35 H 17 Z" fill="#508050" fill-rule="evenodd"/>
  <path d="M 33 26 H 34 V 27 H 33 Z" fill="#407840" fill-rule="evenodd"/>
  <path d="M 41 26 H 42 V 27 H 41 Z M 41 34 H 42 V 35 H 41 Z" fill="#90b090" fill-rule="evenodd"/>
  <path d="M 41 30 H 42 V 31 H 41 Z" fill="#b0c8b0" fill-rule="evenodd"/>
  <path d="M 10 35 H 11 V 36 H 10 Z M 34 35 H 35 V 36 H 34 Z" fill="#285828" fill-rule="evenodd"/>
  <path d="M 29 35 H 30 V 36 H 29 Z" fill="#507858" fill-rule="evenodd"/>
  <path d="M 3 40 H 4 V 41 H 3 Z M 22 40 H 23 V 41 H 22 Z M 25 40 H 27 V 41 H 25 Z M 29 40 H 30 V 41 H 29 Z M 42 40 H 43 V 41 H 42 Z" fill="#588048" fill-rule="evenodd"/>
  <path d="M 4 40 H 5 V 41 H 4 Z M 23 40 H 25 V 41 H 23 Z M 27 40 H 29 V 41 H 27 Z M 43 40 H 44 V 41 H 43 Z" fill="#709050" fill-rule="evenodd"/>
  <path d="M 5 40 H 6 V 41 H 5 Z M 44 40 H 45 V 41 H 44 Z" fill="#78a050" fill-rule="evenodd"/>
  <path d="M 6 40 H 7 V 41 H 6 Z M 45 40 H 47 V 41 H 45 Z" fill="#809850" fill-rule="evenodd"/>
  <path d="M 7 40 H 8 V 41 H 7 Z M 47 40 H 48 V 41 H 47 Z" fill="#689848" fill-rule="evenodd"/>
  <path d="M 8 40 H 9 V 41 H 8 Z M 48 40 H 49 V 41 H 48 Z" fill="#588050" fill-rule="evenodd"/>
  <path d="M 50 40 H 51 V 41 H 50 Z" fill="#104808" fill-rule="evenodd"/>
  <path d="M 2 41 H 3 V 42 H 2 Z M 6 45 H 7 V 46 H 6 Z M 9 45 H 10 V 46 H 9 Z M 48 47 H 49 V 48 H 48 Z" fill="#185010" fill-rule="evenodd"/>
  <path d="M 3 41 H 4 V 42 H 3 Z" fill="#507810" fill-rule="evenodd"/>
  <path d="M 4 41 H 8 V 42 H 4 Z M 23 41 H 25 V 42 H 23 Z M 27 41 H 29 V 42 H 27 Z M 43 41 H 48 V 42 H 43 Z M 3 42 H 9 V 43 H 3 Z M 23 42 H 25 V 43 H 23 Z M 27 42 H 29 V 43 H 27 Z M 43 42 H 49 V 43 H 43 Z M 3 43 H 5 V 44 H 3 Z M 7 43 H 9 V 44 H 7 Z M 23 43 H 25 V 44 H 23 Z M 27 43 H 29 V 44 H 27 Z M 43 43 H 45 V 44 H 43 Z M 47 43 H 49 V 44 H 47 Z M 3 44 H 5 V 45 H 3 Z M 7 44 H 9 V 45 H 7 Z M 23 44 H 25 V 45 H 23 Z M 27 44 H 29 V 45 H 27 Z M 43 44 H 45 V 45 H 43 Z M 47 44 H 49 V 45 H 47 Z M 3 45 H 5 V 46 H 3 Z M 23 45 H 25 V 46 H 23 Z M 27 45 H 29 V 46 H 27 Z M 43 45 H 49 V 46 H 43 Z M 3 46 H 5 V 47 H 3 Z M 23 46 H 25 V 47 H 23 Z M 27 46 H 29 V 47 H 27 Z M 43 46 H 48 V 47 H 43 Z M 3 47 H 5 V 48 H 3 Z M 7 47 H 9 V 48 H 7 Z M 23 47 H 25 V 48 H 23 Z M 27 47 H 29 V 48 H 27 Z M 43 47 H 45 V 48 H 43 Z M 3 48 H 5 V 49 H 3 Z M 7 48 H 9 V 49 H 7 Z M 23 48 H 25 V 49 H 23 Z M 27 48 H 29 V 49 H 27 Z M 43 48 H 45 V 49 H 43 Z M 3 49 H 9 V 50 H 3 Z M 23 49 H 29 V 50 H 23 Z M 43 49 H 45 V 50 H 43 Z M 4 50 H 8 V 51 H 4 Z M 24 50 H 28 V 51 H 24 Z M 43 50 H 45 V 51 H 43 Z" fill="#f8f800" fill-rule="evenodd"/>
  <path d="M 8 41 H 9 V 42 H 8 Z M 48 41 H 49 V 42 H 48 Z M 48 46 H 49 V 47 H 48 Z M 8 50 H 9 V 51 H 8 Z M 28 50 H 29 V 51 H 28 Z" fill="#507818" fill-rule="evenodd"/>
  <path d="M 9 41 H 10 V 42 H 9 Z M 8 51 H 9 V 52 H 8 Z M 23 51 H 24 V 52 H 23 Z M 28 51 H 29 V 52 H 28 Z" fill="#185808" fill-rule="evenodd"/>
  <path d="M 22 41 H 23 V 42 H 22 Z M 26 41 H 27 V 42 H 26 Z M 42 41 H 43 V 42 H 42 Z M 8 45 H 9 V 46 H 8 Z M 8 46 H 9 V 47 H 8 Z M 9 47 H 10 V 48 H 9 Z M 47 47 H 48 V 48 H 47 Z M 22 49 H 23 V 50 H 22 Z M 42 50 H 43 V 51 H 42 Z M 4 51 H 5 V 52 H 4 Z M 44 51 H 45 V 52 H 44 Z" fill="#306810" fill-rule="evenodd"/>
  <path d="M 25 41 H 26 V 42 H 25 Z M 29 41 H 30 V 42 H 29 Z M 9 44 H 10 V 45 H 9 Z M 7 45 H 8 V 46 H 7 Z M 49 45 H 50 V 46 H 49 Z M 7 46 H 8 V 47 H 7 Z M 9 49 H 10 V 50 H 9 Z M 29 49 H 30 V 50 H 29 Z" fill="#386810" fill-rule="evenodd"/>
  <path d="M 49 41 H 50 V 42 H 49 Z M 22 50 H 23 V 51 H 22 Z" fill="#105008" fill-rule="evenodd"/>
  <path d="M 2 42 H 3 V 43 H 2 Z" fill="#286010" fill-rule="evenodd"/>
  <path d="M 9 42 H 10 V 43 H 9 Z M 49 42 H 50 V 43 H 49 Z M 6 44 H 7 V 45 H 6 Z M 6 47 H 7 V 48 H 6 Z M 45 50 H 46 V 51 H 45 Z" fill="#386818" fill-rule="evenodd"/>
  <path d="M 10 42 H 11 V 43 H 10 Z M 50 42 H 51 V 43 H 50 Z M 46 50 H 47 V 51 H 46 Z" fill="#004810" fill-rule="evenodd"/>
  <path d="M 22 42 H 23 V 43 H 22 Z M 25 42 H 27 V 43 H 25 Z M 29 42 H 30 V 43 H 29 Z M 42 42 H 43 V 43 H 42 Z M 2 43 H 3 V 44 H 2 Z M 9 43 H 10 V 44 H 9 Z M 22 43 H 23 V 44 H 22 Z M 25 43 H 27 V 44 H 25 Z M 29 43 H 30 V 44 H 29 Z M 42 43 H 43 V 44 H 42 Z M 49 43 H 50 V 44 H 49 Z M 5 44 H 6 V 45 H 5 Z M 22 44 H 23 V 45 H 22 Z M 25 44 H 27 V 45 H 25 Z M 29 44 H 30 V 45 H 29 Z M 42 44 H 43 V 45 H 42 Z M 49 44 H 50 V 45 H 49 Z M 5 45 H 6 V 46 H 5 Z M 22 45 H 23 V 46 H 22 Z M 25 45 H 27 V 46 H 25 Z M 29 45 H 30 V 46 H 29 Z M 42 45 H 43 V 46 H 42 Z M 5 46 H 6 V 47 H 5 Z M 22 46 H 23 V 47 H 22 Z M 25 46 H 27 V 47 H 25 Z M 29 46 H 30 V 47 H 29 Z M 42 46 H 43 V 47 H 42 Z M 2 47 H 3 V 48 H 2 Z M 5 47 H 6 V 48 H 5 Z M 22 47 H 23 V 48 H 22 Z M 25 47 H 27 V 48 H 25 Z M 29 47 H 30 V 48 H 29 Z M 42 47 H 43 V 48 H 42 Z M 46 47 H 47 V 48 H 46 Z M 9 48 H 10 V 49 H 9 Z M 22 48 H 23 V 49 H 22 Z M 29 48 H 30 V 49 H 29 Z M 42 48 H 43 V 49 H 42 Z M 45 48 H 46 V 49 H 45 Z M 42 49 H 43 V 50 H 42 Z M 45 49 H 46 V 50 H 45 Z M 5 51 H 7 V 52 H 5 Z M 25 51 H 27 V 52 H 25 Z" fill="#407010" fill-rule="evenodd"/>
  <path d="M 5 43 H 6 V 44 H 5 Z M 45 43 H 46 V 44 H 45 Z M 45 44 H 46 V 45 H 45 Z M 45 47 H 46 V 48 H 45 Z M 5 48 H 6 V 49 H 5 Z M 25 48 H 26 V 49 H 25 Z" fill="#689018" fill-rule="evenodd"/>
  <path d="M 6 43 H 7 V 44 H 6 Z M 46 43 H 47 V 44 H 46 Z" fill="#708818" fill-rule="evenodd"/>
  <path d="M 2 44 H 3 V 45 H 2 Z M 2 45 H 3 V 46 H 2 Z M 2 46 H 3 V 47 H 2 Z M 2 48 H 3 V 49 H 2 Z" fill="#406810" fill-rule="evenodd"/>
  <path d="M 46 44 H 47 V 45 H 46 Z M 6 48 H 7 V 49 H 6 Z M 26 48 H 27 V 49 H 26 Z" fill="#688818" fill-rule="evenodd"/>
  <path d="M 49 46 H 50 V 47 H 49 Z M 9 50 H 10 V 51 H 9 Z M 29 50 H 30 V 51 H 29 Z M 42 51 H 43 V 52 H 42 Z" fill="#185810" fill-rule="evenodd"/>
  <path d="M 10 47 H 11 V 48 H 10 Z" fill="#084818" fill-rule="evenodd"/>
  <path d="M 3 50 H 4 V 51 H 3 Z" fill="#487810" fill-rule="evenodd"/>
  <path d="M 23 50 H 24 V 51 H 23 Z" fill="#487818" fill-rule="evenodd"/>
  <path d="M 7 51 H 8 V 52 H 7 Z M 24 51 H 25 V 52 H 24 Z M 27 51 H 28 V 52 H 27 Z M 43 51 H 44 V 52 H 43 Z" fill="#306018" fill-rule="evenodd"/>
</svg>
